<?xml version="1.0" standalone="no"?>
<!DOCTYPE svg PUBLIC "-//W3C//DTD SVG 20010904//EN"
 "http://www.w3.org/TR/2001/REC-SVG-20010904/DTD/svg10.dtd">
<svg version="1.0" xmlns="http://www.w3.org/2000/svg"
 width="1254.000000pt" height="1254.000000pt" viewBox="0 0 1254.000000 1254.000000"
 preserveAspectRatio="xMidYMid meet">

<g transform="translate(0.000000,1254.000000) scale(0.100000,-0.100000)"
fill="#2563eb" stroke="none">
<path d="M2266 11064 c-3 -9 -6 -1110 -6 -2449 l0 -2433 133 -196 c72 -109
197 -297 277 -419 80 -122 193 -292 251 -377 135 -197 316 -465 437 -645 51
-77 98 -141 103 -143 5 -2 9 99 10 250 0 139 1 771 2 1403 l2 1150 45 7 c25 4
853 7 1840 6 l1794 -1 19 24 c18 24 177 278 177 284 0 1 77 130 171 286 95
156 180 299 190 317 22 39 79 133 155 255 30 49 52 93 49 98 -4 5 -874 9
-2215 9 -1731 0 -2210 3 -2216 12 -5 7 -9 304 -10 660 -2 508 1 649 10 658 9
7 831 11 2611 12 l2599 3 145 226 c80 124 209 324 287 445 78 120 189 293 248
384 58 90 106 170 106 177 0 11 -660 13 -3604 13 -3277 0 -3604 -1 -3610 -16z"/>
<path d="M10541 9801 c-12 -16 -21 -32 -21 -35 0 -3 -36 -59 -80 -125 -44 -66
-80 -122 -80 -124 0 -3 -69 -114 -152 -246 -84 -132 -209 -331 -278 -441 -104
-166 -204 -325 -364 -580 -12 -19 -38 -60 -58 -90 -19 -30 -84 -134 -144 -230
-59 -96 -159 -255 -221 -353 -62 -98 -113 -180 -113 -182 0 -3 -79 -129 -176
-282 -268 -422 -458 -724 -484 -768 -13 -22 -88 -140 -167 -263 -79 -123 -143
-225 -143 -228 0 -3 -11 -20 -25 -38 -14 -18 -25 -36 -25 -39 0 -3 -46 -77
-101 -164 -56 -87 -210 -327 -342 -533 -386 -603 -458 -710 -477 -709 -8 0
-60 78 -60 89 0 6 -4 10 -9 10 -5 0 -11 8 -14 18 -9 25 -41 79 -146 247 -156
249 -191 305 -191 310 0 3 -46 76 -101 163 -56 86 -117 186 -137 222 -19 36
-55 97 -80 135 -85 132 -362 585 -362 593 0 2 -20 33 -45 69 -25 35 -45 66
-45 69 0 2 -24 41 -53 87 -29 45 -68 109 -86 142 -19 33 -39 63 -45 67 -14 10
-814 10 -1118 1 l-225 -6 68 -113 c38 -62 100 -162 138 -221 38 -59 91 -145
118 -191 26 -45 95 -158 152 -250 107 -172 165 -266 267 -435 32 -54 97 -157
143 -230 46 -73 93 -150 106 -172 42 -76 167 -280 323 -528 34 -54 62 -100 62
-102 0 -5 158 -265 170 -280 9 -11 161 -260 191 -313 18 -31 70 -115 256 -410
45 -73 83 -135 83 -138 0 -3 13 -24 29 -47 41 -60 151 -236 151 -242 0 -3 16
-27 35 -54 19 -26 35 -52 35 -55 0 -4 20 -36 45 -70 25 -35 45 -68 45 -74 0
-6 4 -12 8 -14 5 -1 24 -30 44 -63 157 -267 227 -375 242 -369 7 3 30 33 50
67 21 34 43 71 49 82 7 10 36 54 65 96 28 42 52 79 52 83 0 3 60 99 133 213
73 115 136 215 140 223 4 8 22 38 40 66 75 119 278 442 380 604 60 96 119 191
132 210 12 19 54 87 93 150 84 138 275 443 507 810 94 148 215 342 270 431
182 293 327 523 365 579 20 30 50 79 66 107 16 29 32 53 37 53 4 0 7 4 7 9 0
8 138 228 363 579 26 40 47 74 47 76 0 2 74 120 164 262 153 241 211 332 341
535 81 126 210 331 215 343 3 6 48 76 101 156 53 80 102 157 109 170 23 45
279 444 299 467 6 7 11 15 11 18 0 5 114 184 238 375 31 47 78 122 106 166
106 170 250 389 258 392 4 2 8 8 8 12 0 11 158 248 171 256 5 3 9 9 9 15 0 5
-260 9 -674 9 l-675 0 -20 -29z"/>
<path d="M10767 6312 c-2 -4 -5 -80 -6 -169 l-3 -162 67 -48 c37 -26 115 -83
173 -126 59 -43 116 -85 127 -93 144 -103 265 -200 265 -210 0 -7 -46 -47
-102 -89 -57 -42 -139 -104 -183 -138 -44 -34 -96 -73 -115 -86 -19 -14 -41
-31 -49 -38 -7 -8 -39 -31 -70 -52 -31 -21 -68 -50 -83 -64 l-28 -26 0 -159
c0 -87 3 -162 6 -165 4 -4 21 5 38 18 17 14 36 29 41 33 213 159 411 308 415
312 3 3 30 24 60 45 30 22 98 74 150 115 52 42 119 93 148 115 l52 39 0 136
c0 74 -4 140 -8 145 -11 15 -86 74 -177 139 -44 31 -102 74 -130 96 -27 22
-70 54 -95 72 -25 18 -49 36 -55 41 -5 4 -35 26 -65 48 -30 22 -64 48 -75 57
-11 9 -56 44 -100 76 -44 33 -106 79 -137 102 -32 24 -59 40 -61 36z"/>
<path d="M1260 6269 c-30 -21 -59 -42 -65 -47 -5 -4 -28 -21 -50 -37 -22 -17
-42 -32 -45 -35 -3 -3 -52 -40 -110 -83 -58 -42 -145 -109 -195 -147 -49 -39
-101 -78 -115 -88 -14 -9 -50 -37 -81 -62 -30 -25 -68 -54 -84 -65 -16 -11
-45 -35 -64 -53 l-34 -33 7 -125 c7 -138 3 -130 96 -199 62 -46 262 -198 357
-271 56 -43 148 -114 205 -156 57 -43 132 -100 168 -128 36 -27 71 -50 78 -50
9 0 12 39 12 160 0 157 -1 161 -24 181 -13 12 -154 118 -312 238 -159 119
-290 223 -292 232 -2 10 17 31 49 55 29 22 75 56 103 77 28 21 68 50 89 63 20
13 45 31 55 39 35 29 278 207 305 223 l27 16 0 168 c0 128 -3 168 -12 167 -7
0 -38 -18 -68 -40z"/>
</g>
</svg>
